<svg width="625" height="253" viewBox="0 0 625 253" fill="none" xmlns="http://www.w3.org/2000/svg">
<path d="M155.095 10.449L81.6768 76.269C79.8006 77.9511 76.9882 77.9511 75.112 76.269L1.69364 10.449C-1.74138 7.36951 0.398575 1.60132 4.97608 1.60132H151.813C156.39 1.60132 158.53 7.36951 155.095 10.449Z" fill="#FFECD6"/>
<path d="M48.6569 133.12L125.39 220.234V57.8402C125.39 53.4991 120.362 51.1888 117.169 54.0623L46.1474 117.962C45.695 118.369 45.3399 118.822 45.075 119.304L40.1787 123.497L47.7079 132.173C48.0416 132.465 48.3584 132.781 48.6569 133.12Z" fill="white"/>
<path d="M178.054 194.543V247.701C178.054 250.479 180.278 252.731 183.021 252.731H366.755C369.693 252.731 371.708 250.306 371.732 247.722C371.723 246.662 371.377 245.579 370.621 244.631L266.327 113.729L178.054 194.543Z" fill="white"/>
<path d="M183.018 2.55009C183.175 2.53488 183.334 2.5271 183.495 2.5271H364.288C367.268 2.5271 369.224 4.97611 369.246 7.52969C369.235 8.80121 368.743 10.0919 367.657 11.1131L266.613 106.147L183.018 2.55009Z" fill="white"/>
<path d="M44.2962 135.941C44.5457 136.136 44.7843 136.36 45.009 136.615L139.182 243.529C142.049 246.784 139.779 251.958 135.484 251.958H41.3113C38.5686 251.958 36.3452 249.695 36.3452 246.903V126.779L44.2962 135.941Z" fill="white"/>
<path d="M262.477 109.748L178.054 5.05469V187.022L262.477 109.748Z" fill="#FFECD6"/>
<path d="M624.872 245.769L570.249 3.92318C569.178 -0.81721 562.791 -1.43355 560.864 3.01757L510.972 118.271L570.824 251.956H620.032C623.224 251.956 625.587 248.936 624.872 245.769Z" fill="white"/>
<path d="M446.719 251.957H397.492C394.3 251.957 391.937 248.936 392.652 245.77L447.275 3.92349C448.345 -0.816903 454.732 -1.43324 456.659 3.01788L506.561 118.293L446.719 251.957Z" fill="white"/>
<path d="M453.158 251.965L508.819 126.787L564.48 251.965H453.158Z" fill="#FFECD6"/>
</svg>
